<svg version="1" xmlns="http://www.w3.org/2000/svg" width="933.333" height="933.333" viewBox="0 0 700.000000 700.000000"><path d="M329.8.5c-.2.2-4.6.6-9.8.9-5.2.4-10.4.9-11.5 1.1-1.1.2-4.2.7-7 1-2.7.3-7.2 1-10 1.5-2.7.5-6.1 1.2-7.5 1.4-7.4 1.4-13.7 2.7-19.3 4.2-3.4.9-6.6 1.7-7.2 1.8-6 1.4-24.5 7.6-38.5 12.9-8 3.1-35.6 16.5-42.5 20.6-2.7 1.7-5.7 3.4-6.5 3.8-4.3 2-26.5 17.3-36.5 25.1C68.5 126 22.1 201.3 7 280.5c-2.8 14.8-3 15.6-3.6 21-.3 2.7-.7 6.1-1 7.5-1.1 6.4-1.8 22.2-1.8 40.5 0 28.2 1.1 39.7 6.9 71 .4 1.6 1.3 5.7 2.2 9 .8 3.3 1.6 6.7 1.8 7.5.8 4.2 3.1 11.8 7.2 24 21.2 62.8 60.9 119.3 112.8 160.4 3.3 2.6 6.8 5.4 7.8 6.2 3.9 3.2 20.7 14.5 29.2 19.7 33.1 20.1 74.9 36.4 111 43.3 7.6 1.5 7 3.6 6.9-24.1l-.1-25-19.7-32c-10.9-17.6-22-35.4-24.6-39.5-8.7-13.7-41.3-66.5-42.4-68.7-.6-1.3-1.4-2.3-1.8-2.3-.5 0-.8-.5-.8-1.1 0-.6-1.4-3-3-5.4-1.6-2.4-3-4.6-3-5 0-.3-.5-1.1-1.1-1.8-.6-.7-3.1-4.7-5.7-8.9-2.6-4.3-11.9-19.3-20.7-33.4-8.8-14.1-16.7-26.8-17.5-28.3-.8-1.5-3-5-4.8-7.8l-3.2-5 10.8-22.4c6-12.3 13.5-27.9 16.7-34.7l5.9-12.2h48.8l-4.4-5.3c-19.1-22.7-28.2-46.6-28.7-74.9-.8-47.5 28.7-90.9 78.8-115.8 5.7-2.9 10.9-5.3 11.5-5.5.6-.1 2.3-.7 3.8-1.3 3.3-1.4 18.4-5.9 22.3-6.7 2.9-.5 3-.8 3.3-6.8 2.1-44.2 36.2-88 85.1-109.4 4.2-1.8 7.2-3.3 6.6-3.4-.5 0-1.9-.2-3-.4s-4.7-.7-8-1c-3.3-.3-7.2-.8-8.7-1.1-2.8-.6-48.5-1.4-49-.9zM625.6 139.7c-.3 1.6-.9 4.6-1.2 6.8-1.6 10.7-10.3 31.6-17.6 42.3-8 11.8-18.8 23.5-29.3 31.8-2.7 2.1-5.1 4.2-5.3 4.6-.2.5-.9.8-1.6.8-.7 0-2.1.8-3.2 1.8-7.8 7.3-41.9 22.3-56.3 24.7-3.3.5-4.1 1.1-4.1 2.8-.1 3.1-.9 9.1-2.2 16.7-3.2 19-12.9 38.7-28.4 57.7l-2.7 3.3h24.9l24.9.1 9.3 19.2c5.2 10.6 12.7 25.9 16.7 34l7.3 14.8-13.2 21.2c-30.3 48.8-50.2 80.8-51.1 82.4-.5 1-6.4 10.5-13 21.1-6.6 10.5-12.9 20.7-13.9 22.5-2.5 4-39.9 64.7-43.4 70.2-1.4 2.2-3.2 5.1-4.1 6.5-.9 1.4-3.5 5.5-5.6 9.2-2.2 3.7-4.6 6.8-5.2 6.8-1 0-1.3 5.9-1.3 26.1v26.1l2.8-.6c1.5-.4 3.8-.8 5.2-1.1 43-8 85.4-24.9 123-48.9 33.8-21.6 68.9-53.9 90.2-83.1.4-.5 1.8-2.4 3.2-4 9.3-11.7 28.9-45.1 36.9-63 10.4-23.1 19.2-50.5 24.1-75 2-9.5 4.6-27.9 5.2-36 .3-3.8.7-8.4.9-10 .6-3.9.6-40.1.1-44-.3-1.7-.7-6.6-1-11-.4-4.4-.8-9.1-1-10.5-.3-1.4-.7-4.8-1.1-7.5-2.2-18.4-9.4-47.1-16.8-67.5-10.2-28.1-21-49.3-37.6-74.4-12.9-19.4-13.1-19.6-13.5-19.6-.3 0-.7 1.2-1 2.7z"/></svg>