<svg width="200" height="49" viewBox="0 0 200 49" fill="none"
	xmlns="http://www.w3.org/2000/svg">
	<title>Craveytrain</title>
	<g clip-path="url(#clip0)">
		<path fill-rule="evenodd" clip-rule="evenodd" d="M9.57182 27.8961L11.8885 23.0986H15.2714C13.8125 21.5368 12.9467 19.5745 12.9467 17.4441C12.9467 13.1511 16.4739 9.54699 21.2436 8.5138C21.3158 4.84558 23.9612 1.69795 27.7449 0.264302C26.5905 0.0961085 25.4121 0.00800705 24.2177 0.00800705C10.8464 0.0160163 0.00830078 10.8445 0.00830078 24.1959C0.00830078 36.0655 8.56977 45.9409 19.8568 47.9913V44.4832L9.57182 27.8961Z" fill="#333333"/>
		<path fill-rule="evenodd" clip-rule="evenodd" d="M43.4084 9.45889C42.9996 13.3914 39.6247 16.6191 35.1516 17.5883C35.1115 19.6626 34.2458 21.5608 32.8269 23.0906L36.2899 23.0986L38.6066 27.808L28.2896 44.4752H28.1533V48.0554C39.6488 46.1732 48.4187 36.2017 48.4187 24.1879C48.4187 18.6455 46.5508 13.5356 43.4084 9.45889Z" fill="#333333"/>
	</g>
	<path d="M61.9069 31.8437C59.775 31.8437 57.6431 30.0613 57.6431 27.1605C57.6431 24.2772 59.775 22.4948 61.9069 22.4948C63.6544 22.4948 64.6504 23.386 64.93 23.6306L66.66 21.0968C66.1882 20.6949 64.3708 19.5765 61.8195 19.5765C57.6431 19.5765 54.1831 22.32 54.1831 27.1605C54.1831 31.9835 57.6431 34.762 61.8195 34.762C64.4233 34.762 66.2756 33.7135 66.695 33.3465L64.9825 30.8127C64.6854 31.0923 63.602 31.8437 61.9069 31.8437Z" fill="#333333"/>
	<path d="M71.1849 34.3426V26.6188C71.1849 24.9762 72.443 22.5472 74.7148 22.5472C75.9205 22.5472 76.7768 23.019 77.0913 23.351L78.5417 20.4153C78.0874 20.0483 76.9865 19.5765 75.6584 19.5765C73.142 19.5765 71.6043 21.2191 71.1849 22.1627V19.9959H67.62V34.3426H71.1849Z" fill="#333333"/>
	<path d="M89.7277 34.3426H93.2576V19.9959H89.6927V22.5472C89.3607 21.5336 87.4734 19.5765 84.4503 19.5765C80.4137 19.5765 77.3731 22.7045 77.3731 27.178C77.3731 31.669 80.4137 34.762 84.4503 34.762C87.5259 34.762 89.4481 32.5077 89.7277 31.669V34.3426ZM80.903 27.178C80.903 24.3471 83.0174 22.4948 85.3415 22.4948C87.8404 22.4948 89.6578 24.3995 89.6578 27.178C89.6578 29.9739 87.8404 31.8437 85.3415 31.8437C83.0174 31.8437 80.903 30.0089 80.903 27.178Z" fill="#333333"/>
	<path d="M93.9937 19.9959L100.127 34.3426H104.339L110.455 19.9959H106.628L102.242 31.0399L97.8381 19.9959H93.9937Z" fill="#333333"/>
	<path d="M113.943 27.7022H125.005C125.04 27.5275 125.057 27.0906 125.057 26.8984C125.057 22.3025 122.261 19.5765 117.892 19.5765C113.192 19.5765 110.466 22.8093 110.466 27.0032C110.466 31.7039 113.489 34.762 118.172 34.762C121.719 34.762 123.467 33.7135 124.568 32.2281L122.908 29.9739C122.331 30.8127 120.863 32.0359 118.399 32.0359C115.516 32.0359 113.996 29.9914 113.943 27.7022ZM121.562 25.8499H114.048C114.17 23.9452 115.236 22.0928 117.945 22.0928C120.566 22.0928 121.51 24.05 121.562 25.8499Z" fill="#333333"/>
	<path d="M132.778 31.1272L128.567 19.9959H124.932L130.873 34.3426L127.606 41.612H131.223L140.956 19.9959H137.374L132.778 31.1272Z" fill="#333333"/>
	<path d="M140.121 19.9959V23.0365H142.847V30.3234C142.847 33.3815 144.63 34.762 147.024 34.762C149.033 34.762 150.484 33.9756 150.711 33.7659L149.348 31.1622C149.261 31.267 148.754 31.7039 147.95 31.7039C146.954 31.7039 146.395 30.9525 146.395 29.3623V23.0365H149.977V19.9959H146.395V14.1069H142.847V19.9959H140.121Z" fill="#333333"/>
	<path d="M154.865 34.3426V26.6188C154.865 24.9762 156.124 22.5472 158.395 22.5472C159.601 22.5472 160.457 23.019 160.772 23.351L162.222 20.4153C161.768 20.0483 160.667 19.5765 159.339 19.5765C156.823 19.5765 155.285 21.2191 154.865 22.1627V19.9959H151.301V34.3426H154.865Z" fill="#333333"/>
	<path d="M173.408 34.3426H176.938V19.9959H173.373V22.5472C173.041 21.5336 171.154 19.5765 168.131 19.5765C164.094 19.5765 161.054 22.7045 161.054 27.178C161.054 31.669 164.094 34.762 168.131 34.762C171.206 34.762 173.129 32.5077 173.408 31.669V34.3426ZM164.583 27.178C164.583 24.3471 166.698 22.4948 169.022 22.4948C171.521 22.4948 173.338 24.3995 173.338 27.178C173.338 29.9739 171.521 31.8437 169.022 31.8437C166.698 31.8437 164.583 30.0089 164.583 27.178Z" fill="#333333"/>
	<path d="M181.204 15.5573C182.445 15.5573 183.476 14.5438 183.476 13.338C183.476 12.0799 182.427 11.0838 181.204 11.0838C179.981 11.0838 178.967 12.0973 178.967 13.338C178.967 14.5438 179.963 15.5573 181.204 15.5573ZM179.369 34.3426H182.952V19.9959H179.369V34.3426Z" fill="#333333"/>
	<path d="M194.094 19.5765C191.577 19.5765 189.463 21.2541 189.166 22.4423V19.9959H185.566V34.3426H189.166V26.479C189.166 24.0675 191.07 22.2676 193.045 22.2676C195.002 22.2676 196.383 23.4559 196.383 26.112V34.3426H200V25.4305C200 21.289 196.942 19.5765 194.094 19.5765Z" fill="#333333"/>
	<defs>
		<clipPath id="clip0">
			<rect width="48.5408" height="48.5408" fill="white"/>
		</clipPath>
	</defs>
</svg>
