<?xml version="1.0" encoding="UTF-8"?>
<svg viewBox="0 0 1101 217" version="1.1" xmlns="http://www.w3.org/2000/svg">
  <title>craveytrain</title>
  <g class="logoImage" fill-rule="nonzero">
      <path fill="currentColor" d="M43.4445087,126.121516 L53.9687862,104.425138 L69.3364162,104.425138 C62.7086707,97.3620431 58.7757228,88.4878985 58.7757228,78.853113 C58.7757228,59.438658 74.7988442,43.1392088 96.466474,38.4667001 C96.7942197,21.8774829 108.811561,7.64263061 126,1.15907194 C120.756069,0.39843098 115.40289,0 109.976879,0 C49.2346821,0.0362209982 0,49.0070105 0,109.387414 C0,163.066934 38.8924856,207.727424 90.1664741,217 L90.1664741,201.135203 L43.4445087,126.121516 Z"></path>
      <path fill="currentColor" d="M196.254747,42 C194.398734,59.8304628 179.077531,74.4652418 158.770569,78.8593069 C158.588608,88.2647852 154.658227,96.8713426 148.216772,103.807429 L163.938291,103.843744 L174.455696,125.196721 L127.618671,200.767379 L127,200.767379 L127,217 C179.186709,208.466072 219,163.25441 219,108.782527 C219,83.6528325 210.520569,60.4841253 196.254747,42 Z"></path>
  </g>
  <path fill="currentColor" d="M280.952,89.848 C271.304,89.848 263.384,97.912 263.384,107.992 C263.384,118.216 271.304,126.28 280.952,126.28 C288.584,126.28 293.336,122.824 293.336,122.824 L301.976,140.536 C301.976,140.536 293.624,147.16 277.208,147.16 C255.896,147.16 236.312,129.88 236.312,108.28 C236.312,86.536 255.752,68.968 277.208,68.968 C293.624,68.968 301.976,75.88 301.976,75.88 L293.336,93.304 C293.336,93.304 288.584,89.848 280.952,89.848 Z M312.344,145 L312.344,71.128 L337.832,71.128 L337.832,81.784 L338.12,81.784 C338.12,81.784 346.184,68.968 360.728,68.968 C370.232,68.968 376.856,73.576 376.856,73.576 L366.2,95.176 C366.2,95.176 361.448,91.144 352.952,91.144 C339.704,91.144 337.832,104.248 337.832,106.12 L337.832,145 L312.344,145 Z M378.728,108.136 C378.728,86.536 393.848,68.968 415.448,68.968 C425.384,68.968 433.592,72.28 439.64,78.184 L439.64,71.128 L465.128,71.128 L465.128,145 L439.928,145 L439.928,136.648 L439.64,136.648 C434.168,142.696 425.528,147.16 415.448,147.16 C393.848,147.16 378.728,129.736 378.728,108.136 Z M405.8,108.136 C405.8,118.216 412.712,125.416 423.08,125.416 C433.016,125.416 440.216,118.216 440.216,108.136 C440.216,97.912 432.584,90.712 423.08,90.712 C413.432,90.712 405.8,97.912 405.8,108.136 Z M501.128,71.128 L519.128,111.304 L537.128,71.128 L567.368,71.128 L527.768,145 L510.488,145 L470.888,71.128 L501.128,71.128 Z M647.864,111.592 L594.296,111.592 C594.296,122.968 603.8,126.856 610.28,126.856 C618.488,126.856 622.088,125.272 628.28,118.648 L646.712,127.864 C638.36,141.832 624.824,147.16 608.408,147.16 C586.088,147.16 567.8,129.592 567.8,108.136 C567.8,86.536 586.088,68.968 608.408,68.968 C630.872,68.968 648.008,82.216 648.008,108.136 C648.008,109.144 648.008,110.728 647.864,111.592 Z M595.016,97.48 L623.096,97.48 C621.944,89.704 616.616,85.528 609.128,85.528 C600.344,85.528 595.448,90.712 595.016,97.48 Z M715.976,71.128 L745.352,71.128 L687.32,182.44 L657.944,182.44 L683.432,133.48 L648.44,71.128 L677.816,71.128 L698.408,109 L715.976,71.128 Z M793.016,121.96 C793.016,121.96 793.016,121.96 793.016,121.96 Z M793.016,121.96 L799.352,142.552 C799.352,142.552 791.144,147.16 780.632,147.16 C760.328,147.16 755.432,132.04 755.432,118.936 L755.432,90.568 L744.776,90.568 L744.776,71.128 L755.432,71.128 L755.432,43.624 L780.92,43.624 L780.92,71.128 L796.472,71.128 L796.472,90.568 L780.92,90.568 L780.92,114.04 C780.92,120.952 782.648,124.264 786.68,124.264 C789.991438,124.264 793.014973,121.960782 793.016,121.96 L793.016,121.96 Z M807.992,145 L807.992,71.128 L833.48,71.128 L833.48,81.784 L833.768,81.784 C833.768,81.784 841.832,68.968 856.376,68.968 C865.88,68.968 872.504,73.576 872.504,73.576 L861.848,95.176 C861.848,95.176 857.096,91.144 848.6,91.144 C835.352,91.144 833.48,104.248 833.48,106.12 L833.48,145 L807.992,145 Z M874.376,108.136 C874.376,86.536 889.496,68.968 911.096,68.968 C921.032,68.968 929.24,72.28 935.288,78.184 L935.288,71.128 L960.776,71.128 L960.776,145 L935.576,145 L935.576,136.648 L935.288,136.648 C929.816,142.696 921.176,147.16 911.096,147.16 C889.496,147.16 874.376,129.736 874.376,108.136 Z M901.448,108.136 C901.448,118.216 908.36,125.416 918.728,125.416 C928.664,125.416 935.864,118.216 935.864,108.136 C935.864,97.912 928.232,90.712 918.728,90.712 C909.08,90.712 901.448,97.912 901.448,108.136 Z M991.16,25.48 C999.512,25.48 1006.28,32.248 1006.28,40.6 C1006.28,48.952 999.512,55.72 991.16,55.72 C982.808,55.72 976.04,48.952 976.04,40.6 C976.04,32.248 982.808,25.48 991.16,25.48 Z M978.056,71.128 L1003.544,71.128 L1003.544,145 L978.056,145 L978.056,71.128 Z M1021.544,145 L1021.544,71.128 L1047.032,71.128 L1047.032,78.904 L1047.32,78.904 C1053.08,73.144 1060.424,68.968 1068.488,68.968 C1082.024,68.968 1100.888,75.736 1100.888,96.328 L1100.888,145 L1075.4,145 L1075.4,103.24 C1075.4,95.896 1070.36,88.84 1062.152,88.84 C1054.52,88.84 1047.032,95.896 1047.032,103.24 L1047.032,145 L1021.544,145 Z" class="logoText"></path>
</svg>
