<svg width="209" height="48" viewBox="0 0 209 48"
	xmlns="http://www.w3.org/2000/svg" fill="currentColor">
	<defs>
		<mask id="smokestack">
			<rect x="0" y="0" width="48" height="48" fill="white" />
			<g fill="black">
				<ellipse cx="32" cy="9" rx="12" ry="10" />
				<ellipse cx="25" cy="16" rx="12" ry="9" />
				<polygon points="12, 22 36, 22 39, 27 28, 44 28, 48 20, 48 20, 44 9, 27" />
			</g>
		</mask>
	</defs>
	<circle cx="24" cy="24" r="24" mask="url(#smokestack)" />
	<path d="M61.262 30.808C59.264 30.808 57.356 29.134 57.356 26.596C57.356 24.058 59.264 22.402 61.262 22.402C62.864 22.402 63.818 23.23 64.088 23.482L66.248 20.332C65.726 19.864 63.818 18.784 61.19 18.784C56.492 18.784 53 21.718 53 26.596C53 31.474 56.492 34.426 61.19 34.426C63.854 34.426 65.762 33.364 66.266 32.95L64.142 29.818C63.836 30.088 62.828 30.808 61.262 30.808Z"/>
	<path d="M71.2835 33.994V26.29C71.2835 24.742 72.3995 22.492 74.7035 22.492C75.9635 22.492 76.8455 23.014 77.1695 23.392L78.9515 19.666C78.4655 19.288 77.2595 18.784 75.8915 18.784C73.2635 18.784 71.7155 20.44 71.2835 21.376V19.216H66.7475V33.994H71.2835Z"/>
	<path d="M90.0823 33.994H94.5463V19.216H90.0463V21.61C89.6323 20.602 87.7783 18.784 84.8263 18.784C80.5963 18.784 77.5723 22.132 77.5723 26.614C77.5723 31.096 80.5963 34.426 84.8263 34.426C87.8683 34.426 89.7763 32.23 90.0823 31.402V33.994ZM82.0363 26.614C82.0363 24.13 83.9263 22.402 86.0683 22.402C88.3543 22.402 90.0103 24.166 90.0103 26.614C90.0103 29.08 88.3543 30.808 86.0683 30.808C83.9263 30.808 82.0363 29.116 82.0363 26.614Z"/>
	<path d="M95.1315 19.216L101.414 33.994H106.742L112.97 19.216H108.128L104.06 29.854L99.9915 19.216H95.1315Z"/>
	<path d="M117.141 27.352H128.211C128.229 27.19 128.247 26.668 128.247 26.452C128.247 21.52 125.277 18.784 120.633 18.784C115.647 18.784 112.785 22.132 112.785 26.434C112.785 31.456 116.115 34.426 120.975 34.426C124.845 34.426 126.627 33.382 127.653 32.122L125.763 29.278C125.097 30.052 123.585 31.042 121.281 31.042C118.689 31.042 117.249 29.35 117.141 27.352ZM123.891 25.21H117.267C117.357 23.428 118.383 21.88 120.687 21.88C122.937 21.88 123.819 23.536 123.891 25.21Z"/>
	<path d="M136.445 29.998L132.485 19.216H127.931L134.069 33.994L130.667 41.482H135.239L145.319 19.216H140.837L136.445 29.998Z"/>
	<path d="M144.262 19.216V22.996H146.926V29.602C146.926 32.914 148.888 34.426 151.606 34.426C153.874 34.426 155.566 33.562 155.818 33.328L154.216 30.07C154.126 30.196 153.604 30.61 152.848 30.61C151.876 30.61 151.426 29.8 151.426 28.378V22.996H154.936V19.216H151.426V13.15H146.926V19.216H144.262Z" />
	<path d="M160.573 33.994V26.29C160.573 24.742 161.689 22.492 163.993 22.492C165.253 22.492 166.135 23.014 166.459 23.392L168.241 19.666C167.755 19.288 166.549 18.784 165.181 18.784C162.553 18.784 161.005 20.44 160.573 21.376V19.216H156.037V33.994H160.573Z"/>
	<path d="M179.372 33.994H183.836V19.216H179.336V21.61C178.922 20.602 177.068 18.784 174.116 18.784C169.886 18.784 166.862 22.132 166.862 26.614C166.862 31.096 169.886 34.426 174.116 34.426C177.158 34.426 179.066 32.23 179.372 31.402V33.994ZM171.326 26.614C171.326 24.13 173.216 22.402 175.358 22.402C177.644 22.402 179.3 24.166 179.3 26.614C179.3 29.08 177.644 30.808 175.358 30.808C173.216 30.808 171.326 29.116 171.326 26.614Z"/>
	<path d="M188.381 15.382C189.875 15.382 191.099 14.176 191.099 12.7C191.099 11.224 189.839 10 188.381 10C186.905 10 185.717 11.242 185.717 12.7C185.717 14.176 186.905 15.382 188.381 15.382ZM186.059 33.994H190.595V19.216H186.059V33.994Z"/>
	<path d="M202.386 18.784C199.884 18.784 197.742 20.368 197.382 21.574V19.216H192.846V33.994H197.382V25.966C197.382 23.716 199.128 22.096 200.964 22.096C202.8 22.096 204.078 23.266 204.078 25.678V33.994H208.632V24.904C208.632 20.548 205.41 18.784 202.386 18.784Z"/>
</svg>
