<?xml version="1.0" standalone="no"?>
<!DOCTYPE svg PUBLIC "-//W3C//DTD SVG 20010904//EN"
 "http://www.w3.org/TR/2001/REC-SVG-20010904/DTD/svg10.dtd">
<svg version="1.0" xmlns="http://www.w3.org/2000/svg"
 width="700.000000pt" height="700.000000pt" viewBox="0 0 700.000000 700.000000"
 preserveAspectRatio="xMidYMid meet">
<metadata>
Created by potrace 1.11, written by Peter Selinger 2001-2013
</metadata>
<g transform="translate(0.000000,700.000000) scale(0.100000,-0.100000)"
fill="#000000" stroke="none">
<path d="M3298 6995 c-2 -1 -48 -6 -102 -9 -55 -4 -102 -9 -105 -10 -3 -2 -37
-7 -74 -11 -37 -3 -78 -8 -90 -11 -12 -2 -35 -6 -52 -9 -51 -9 -78 -14 -145
-30 -36 -8 -76 -18 -90 -21 -14 -3 -70 -18 -126 -34 -792 -230 -1495 -752
-1945 -1445 -134 -206 -258 -448 -334 -650 -20 -55 -41 -109 -45 -120 -26 -62
-92 -300 -114 -415 -8 -41 -17 -84 -19 -95 -8 -37 -26 -154 -32 -211 -26 -238
-26 -657 0 -826 2 -13 6 -44 9 -69 39 -285 130 -612 243 -879 394 -925 1176
-1643 2130 -1954 166 -54 368 -104 438 -110 19 -1 20 5 19 249 l-1 250 -213
345 c-117 190 -228 368 -246 395 -32 50 -458 739 -485 784 -8 14 -18 30 -22
35 -5 6 -29 46 -55 88 -26 43 -119 193 -207 334 -88 141 -167 269 -175 283 -8
15 -30 50 -48 77 l-32 51 92 189 c51 104 92 191 93 194 1 3 34 74 75 157 l74
153 242 2 243 3 -36 40 c-131 148 -252 395 -277 568 -4 27 -10 59 -12 70 -6
27 -5 234 0 263 2 12 7 39 10 60 46 287 233 583 496 784 189 144 349 219 659
308 21 6 25 14 26 52 15 318 203 660 490 890 106 86 378 239 424 240 40 1 -19
18 -84 25 -38 4 -83 9 -100 11 -33 5 -492 14 -497 9z"/>
<path d="M6260 5628 c0 -27 -35 -179 -54 -234 -78 -228 -243 -456 -436 -604
-25 -19 -46 -38 -48 -42 -2 -5 -9 -8 -17 -8 -7 0 -18 -6 -24 -14 -15 -18 -149
-95 -226 -131 -120 -55 -325 -125 -367 -125 -13 0 -18 -8 -19 -27 -2 -84 -32
-244 -61 -323 -51 -140 -153 -315 -239 -410 l-31 -35 248 -3 249 -3 94 -192
c51 -106 126 -259 166 -340 l73 -148 -135 -217 c-136 -219 -249 -402 -516
-832 -172 -278 -207 -335 -257 -415 -21 -33 -156 -251 -300 -485 -144 -234
-270 -432 -281 -442 -18 -15 -19 -33 -19 -273 l0 -256 38 7 c31 5 223 47 272
59 61 15 211 62 318 101 471 171 896 441 1258 799 136 134 232 244 326 370 4
6 18 24 31 40 50 64 170 250 231 358 74 133 166 322 166 343 0 8 5 14 10 14 6
0 10 6 10 13 0 6 16 53 36 102 35 90 119 359 130 419 8 42 9 48 17 71 3 11 8
36 11 55 3 19 10 58 15 87 6 29 13 74 16 100 3 26 8 57 10 69 2 11 7 54 11 95
3 41 8 90 10 109 5 46 5 404 0 455 -3 22 -7 75 -10 119 -4 43 -8 81 -10 85 -2
3 -7 33 -10 66 -13 128 -70 382 -124 550 -14 44 -27 85 -28 90 -5 27 -93 243
-141 345 -77 163 -252 466 -310 535 -5 6 -22 28 -38 50 -37 51 -45 60 -45 53z"/>
</g>
</svg>
