<svg width="16" height="16" viewBox="0 0 12 12" fill="currentColor" xmlns="http://www.w3.org/2000/svg">
<title>Feeds</title>
<path d="M1.77842 8.44309C0.797688 8.44309 0 9.24078 0 10.2225C0 11.2018 0.797688 11.9994 1.77842 11.9994C2.75915 11.9994 3.5578 11.2013 3.5578 10.2225C3.55828 9.24078 2.75963 8.44309 1.77842 8.44309Z"/>
<path d="M0.184971 3.92722C0.0833333 3.92722 0 4.01056 0 4.11268V6.37086C0 6.4725 0.0833333 6.55535 0.184971 6.55535C3.08478 6.55535 5.44461 8.9147 5.44461 11.8155C5.44461 11.9161 5.52698 12 5.62958 12H7.88825H7.89595C7.99952 12 8.08237 11.9166 8.08237 11.8155L8.0737 11.7572C8.04046 7.43445 4.51349 3.92722 0.184971 3.92722Z"/>
<path d="M11.9894 11.7572C11.9581 5.27312 6.67341 0.0105972 0.184971 0.0105972C0.0833333 0.0105972 0 0.0934489 0 0.196532V2.52023C0 2.62235 0.0833333 2.70472 0.184971 2.70472C5.20857 2.70472 9.29528 6.79239 9.29528 11.8155C9.29528 11.9162 9.37813 12 9.47929 12H11.8035H11.8131C11.9143 12 12 11.9167 12 11.8155L11.9894 11.7572Z"/>
</svg>
