<svg width="241" height="48" viewBox="0 0 241 48" fill="currentColor"
	xmlns="http://www.w3.org/2000/svg">
	<title>Craveytrain</title>
	<path fill-rule="evenodd" clip-rule="evenodd" d="M24 0C24.7565 0 25.5048 0.0349998 26.2434 0.103468C22.963 1.57204 20.5999 4.37226 20.0989 7.68261C15.9314 9.03477 13 12.2495 13 16C13 18.3051 14.1073 20.4077 15.9283 22H12L9.5 27L20 44V47.6682C8.64915 45.7639 0 35.892 0 24C0 10.7452 10.7452 0 24 0ZM33.0717 22H36L38.5 27L28 44V47.6682C39.3509 45.7639 48 35.892 48 24C48 18.474 46.1324 13.3842 42.994 9.3274C42.8414 13.4505 39.8186 16.9431 35.6062 18.3437C35.1328 19.721 34.2523 20.9678 33.0717 22Z"/>
	<path d="M62.9803 30.1161C60.5668 30.1161 58.2619 28.0955 58.2619 25.032C58.2619 21.9686 60.5668 19.9697 62.9803 19.9697C64.9155 19.9697 66.0679 20.9691 66.394 21.2733L69.0033 17.4711C68.3727 16.9062 66.0679 15.6026 62.8933 15.6026C57.2183 15.6026 53 19.1441 53 25.032C53 30.92 57.2183 34.4831 62.8933 34.4831C66.1114 34.4831 68.4162 33.2013 69.025 32.7015L66.4593 28.9211C66.0896 29.247 64.872 30.1161 62.9803 30.1161Z"/>
	<path d="M75.086 33.9617V24.6627C75.086 22.7942 76.4341 20.0783 79.2173 20.0783C80.7394 20.0783 81.8048 20.7084 82.1962 21.1647L84.3488 16.6672C83.7617 16.211 82.3049 15.6026 80.6524 15.6026C77.4778 15.6026 75.6079 17.6015 75.086 18.7313V16.1241H69.6067V33.9617H75.086Z"/>
	<path d="M97.7945 33.9617H103.187V16.1241H97.751V19.0137C97.2509 17.797 95.0113 15.6026 91.4454 15.6026C86.3356 15.6026 82.6827 19.6438 82.6827 25.0537C82.6827 30.4637 86.3356 34.4831 91.4454 34.4831C95.12 34.4831 97.4248 31.8325 97.7945 30.833V33.9617ZM88.0751 25.0537C88.0751 22.0555 90.3582 19.9697 92.9457 19.9697C95.7071 19.9697 97.7075 22.0989 97.7075 25.0537C97.7075 28.0303 95.7071 30.1161 92.9457 30.1161C90.3582 30.1161 88.0751 28.0738 88.0751 25.0537Z"/>
	<path d="M103.894 16.1241L111.482 33.9617H117.918L125.442 16.1241H119.593L114.679 28.9646L109.765 16.1241H103.894Z"/>
	<path d="M130.48 25.9445H143.853C143.875 25.749 143.896 25.1189 143.896 24.8582C143.896 18.9051 140.309 15.6026 134.699 15.6026C128.676 15.6026 125.219 19.6438 125.219 24.8365C125.219 30.8982 129.241 34.4831 135.112 34.4831C139.787 34.4831 141.939 33.223 143.179 31.7021L140.896 28.2693C140.091 29.2035 138.265 30.3985 135.482 30.3985C132.35 30.3985 130.611 28.3562 130.48 25.9445ZM138.634 23.3591H130.633C130.741 21.2081 131.981 19.3396 134.764 19.3396C137.482 19.3396 138.547 21.3385 138.634 23.3591Z"/>
	<path d="M153.8 29.1384L149.016 16.1241H143.515L150.93 33.9617L146.82 43H152.343L164.519 16.1241H159.105L153.8 29.1384Z"/>
	<path d="M163.243 16.1241V20.6867H166.461V28.6604C166.461 32.6581 168.831 34.4831 172.114 34.4831C174.854 34.4831 176.898 33.4403 177.202 33.1578L175.267 29.2253C175.158 29.3774 174.528 29.8771 173.614 29.8771C172.44 29.8771 171.897 28.8994 171.897 27.183V20.6867H176.137V16.1241H171.897V8.80217H166.461V16.1241H163.243Z"/>
	<path d="M182.946 33.9617V24.6627C182.946 22.7942 184.294 20.0783 187.077 20.0783C188.599 20.0783 189.665 20.7084 190.056 21.1647L192.209 16.6672C191.622 16.211 190.165 15.6026 188.512 15.6026C185.338 15.6026 183.468 17.6015 182.946 18.7313V16.1241H177.467V33.9617H182.946Z"/>
	<path d="M205.654 33.9617H211.047V16.1241H205.611V19.0137C205.111 17.797 202.871 15.6026 199.305 15.6026C194.196 15.6026 190.543 19.6438 190.543 25.0537C190.543 30.4637 194.196 34.4831 199.305 34.4831C202.98 34.4831 205.285 31.8325 205.654 30.833V33.9617ZM195.935 25.0537C195.935 22.0555 198.218 19.9697 200.806 19.9697C203.567 19.9697 205.567 22.0989 205.567 25.0537C205.567 28.0303 203.567 30.1161 200.806 30.1161C198.218 30.1161 195.935 28.0738 195.935 25.0537Z"/>
	<path d="M216.537 11.4963C218.342 11.4963 219.821 10.0406 219.821 8.259C219.821 6.47741 218.299 5 216.537 5C214.754 5 213.319 6.49914 213.319 8.259C213.319 10.0406 214.754 11.4963 216.537 11.4963ZM213.733 33.9617H219.212V16.1241H213.733V33.9617Z"/>
	<path d="M233.455 15.6026C230.433 15.6026 227.845 17.5146 227.41 18.9703V16.1241H221.931V33.9617H227.41V24.2716C227.41 21.5557 229.519 19.6003 231.737 19.6003C233.955 19.6003 235.499 21.0126 235.499 23.924V33.9617H241V22.9897C241 17.7318 237.108 15.6026 233.455 15.6026Z"/>
</svg>
