<svg width="156" height="32" viewBox="0 0 156 32" fill="currentColor" xmlns="http://www.w3.org/2000/svg">
<path d="M7.79848 21.5036C5.9126 21.5036 4.11159 19.8658 4.11159 17.3825C4.11159 14.8994 5.9126 13.2791 7.79848 13.2791C9.31063 13.2791 10.2111 14.0892 10.4659 14.3357L12.5048 11.2537C12.012 10.7958 10.2111 9.73914 7.7305 9.73914C3.29613 9.73914 0 12.6098 0 17.3825C0 22.1553 3.29613 25.0435 7.7305 25.0435C10.2451 25.0435 12.046 24.0045 12.5217 23.5993L10.5169 20.535C10.2281 20.7992 9.27664 21.5036 7.79848 21.5036Z"/>
<path d="M18.05 25.0435V17.2917C18.05 15.7341 19.0678 13.4701 21.1691 13.4701C22.3183 13.4701 23.1227 13.9954 23.4182 14.3758L25.0435 10.6266C24.6002 10.2463 23.5003 9.73914 22.2526 9.73914C19.8558 9.73914 18.444 11.4054 18.05 12.3473V10.1739H13.913V25.0435H18.05Z"/>
<path d="M36.9824 24.6208H41.7391V10.1619H36.944V12.5041C36.5029 11.5179 34.5273 9.73914 31.3818 9.73914C26.8744 9.73914 23.6522 13.0149 23.6522 17.4001C23.6522 21.7854 26.8744 25.0435 31.3818 25.0435C34.6232 25.0435 36.6563 22.8949 36.9824 22.0847V24.6208ZM28.4088 17.4001C28.4088 14.9698 30.4228 13.2791 32.7052 13.2791C35.1411 13.2791 36.9056 15.005 36.9056 17.4001C36.9056 19.8129 35.1411 21.5036 32.7052 21.5036C30.4228 21.5036 28.4088 19.8482 28.4088 17.4001Z"/>
<path d="M41.7391 9.73914L48.1084 25.0435H53.5106L59.8261 9.73914H54.9166L50.7918 20.7561L46.6671 9.73914H41.7391Z"/>
<path d="M64.1371 18.1222H75.0952C75.1133 17.9637 75.1305 17.453 75.1305 17.2416C75.1305 12.4161 72.1912 9.73914 67.5942 9.73914C62.6589 9.73914 59.8261 13.0149 59.8261 17.224C59.8261 22.1376 63.1218 25.0435 67.9327 25.0435C71.7635 25.0435 73.5269 24.0221 74.5429 22.7892L72.6722 20.0066C72.0126 20.7639 70.5163 21.7325 68.2358 21.7325C65.6694 21.7325 64.2444 20.0771 64.1371 18.1222ZM70.8187 16.0265H64.2625C64.351 14.2829 65.367 12.7683 67.6475 12.7683C69.8747 12.7683 70.7474 14.3886 70.8187 16.0265Z"/>
<path d="M83.3057 20.5187L79.503 9.73914H75.1304L81.0244 24.5137L77.7575 32H82.1476L91.826 9.73914H87.5225L83.3057 20.5187Z"/>
<path d="M90.4348 10.124V13.8318H93.3215V20.3116C93.3215 23.5604 95.4475 25.0435 98.3924 25.0435C100.85 25.0435 102.684 24.196 102.957 23.9665L101.221 20.7707C101.123 20.8943 100.558 21.3004 99.738 21.3004C98.6849 21.3004 98.1978 20.5059 98.1978 19.111V13.8318H102.001V10.124H98.1978V4.17389H93.3215V10.124H90.4348Z"/>
<path d="M107.61 25.0435V17.2917C107.61 15.7341 108.755 13.4701 111.119 13.4701C112.412 13.4701 113.317 13.9954 113.649 14.3758L115.478 10.6266C114.98 10.2463 113.742 9.73914 112.338 9.73914C109.642 9.73914 108.054 11.4054 107.61 12.3473V10.1739H102.956V25.0435H107.61Z"/>
<path d="M126.391 24.6208H130.783V10.1619H126.356V12.5041C125.949 11.5179 124.125 9.73914 121.221 9.73914C117.061 9.73914 114.087 13.0149 114.087 17.4001C114.087 21.7854 117.061 25.0435 121.221 25.0435C124.214 25.0435 126.091 22.8949 126.391 22.0847V24.6208ZM118.477 17.4001C118.477 14.9698 120.336 13.2791 122.444 13.2791C124.692 13.2791 126.32 15.005 126.32 17.4001C126.32 19.8129 124.692 21.5036 122.444 21.5036C120.336 21.5036 118.477 19.8482 118.477 17.4001Z"/>
<path d="M134.928 5.61742C136.473 5.61742 137.739 4.35866 137.739 2.81809C137.739 1.27753 136.436 0 134.928 0C133.402 0 132.174 1.29632 132.174 2.81809C132.174 4.35866 133.402 5.61742 134.928 5.61742ZM132.528 25.0435H137.218V9.61912H132.528V25.0435Z"/>
<path d="M149.22 9.73914C146.574 9.73914 144.308 11.333 143.928 12.5465V10.1739H139.13V25.0435H143.928V16.9657C143.928 14.7017 145.774 13.0717 147.716 13.0717C149.658 13.0717 151.01 14.249 151.01 16.6759V25.0435H155.826V15.8971C155.826 11.5141 152.418 9.73914 149.22 9.73914Z"/>
</svg>
