<?xml version="1.0" encoding="UTF-8" standalone="no"?>
<svg width="400px" height="400px" viewBox="0 0 400 400" version="1.1" xmlns="http://www.w3.org/2000/svg" xmlns:xlink="http://www.w3.org/1999/xlink">
    <title>craveytrain</title>
    <path d="M78.8741722,229.878 L97.9651569,190.344 L125.841958,190.344 C113.819262,177.474 106.684915,161.304 106.684915,143.748 C106.684915,108.372 135.750774,78.672 175.055742,70.158 C175.650271,39.93 197.449666,13.992 228.629405,2.178 C219.116942,0.792 209.406303,0.066 199.563546,0.066 C89.3775167,0.132 0.0660587707,89.364 0.0660587707,199.386 C0.0660587707,297.198 70.6168259,378.576 163.627575,395.472 L163.627575,366.564 L78.8741722,229.878 L78.8741722,229.878 Z"></path>
    <path d="M357.708243,77.946 C354.339246,110.352 326.528503,136.95 289.667709,144.936 C289.337416,162.03 282.203068,177.672 270.510666,190.278 L299.048055,190.344 L318.13904,229.152 L233.121402,366.498 L231.998403,366.498 L231.998403,396 C326.72668,380.49 398.994975,298.32 398.994975,199.32 C398.994975,153.648 383.603281,111.54 357.708243,77.946 L357.708243,77.946 Z"></path>
</svg>
